<svg xmlns="http://www.w3.org/2000/svg" width="23" height="23" data-arp-injected="true"><script xmlns=""/><path d="M7.405 19.053l-.043-2.027c1.262-.857 2.74-2.414 4.371-3.808l3.7 6.432a.306.306 0 0 0 .501.042l.377-.456a1.26 1.26 0 0 0 .278-.982l-.216-1.503c.158-.147.296-.281.336-.32.356-.356.759-.918.49-1.187-.184-.185-.713-.253-1.054-.076l-.228-1.6c.205-.19.412-.386.462-.437.355-.355.76-.918.49-1.186-.209-.21-.82-.231-1.185 0l-.298-2.067c.63-.607 1.17-1.134 1.333-1.297 1.558-1.558 3.391-3.955 2.462-4.884-.917-.919-3.326.905-4.883 2.462-.164.164-.69.702-1.297 1.333l-2.068-.298c.23-.365.21-.976 0-1.185-.27-.269-.83.134-1.186.489a19.71 19.71 0 0 0-.437.464l-1.6-.23c.177-.341.11-.868-.076-1.053-.268-.27-.83.134-1.186.49-.04.04-.172.178-.32.337L4.624 6.29c-.352-.051-.71.05-.983.277l-.457.377a.306.306 0 0 0 .043.5l6.433 3.701c-1.397 1.63-2.952 3.11-3.808 4.37l-2.028-.042a.901.901 0 0 0-.685.208l-.475.434a.306.306 0 0 0 .046.5l2.34 1.213 1.212 2.34c.105.185.363.21.5.046l.434-.476a.913.913 0 0 0 .208-.685z" stroke="#333" stroke-width=".7" fill="none" fill-rule="evenodd" stroke-linecap="round" stroke-linejoin="round"/><script xmlns=""/></svg>