<svg xmlns="http://www.w3.org/2000/svg" width="23" height="23" data-arp-injected="true"><script xmlns=""/><g stroke="#333" fill="none" fill-rule="evenodd"><g stroke-width=".7"><path stroke-linejoin="round" d="M5.707 20.645V2.175H16.1v18.633"/><path d="M8.389 9.626h1.125M8.389 6.898h1.125M8.389 4.163h1.125" stroke-linecap="round"/><g stroke-linecap="round"><path stroke-linejoin="round" d="M2.81 20.7v-8.528h1.206"/><path d="M2.821 14.728h1.125M3.043 17.154h.94"/></g><g stroke-linecap="round"><path stroke-linejoin="round" d="M20.456 20.7V7.017h-2.702"/><path d="M20.444 12.172h-2.677M20.444 9.617h-2.677M20.444 14.728h-2.675M20.444 17.154h-2.675"/></g><path d="M11.699 9.617h4.265M11.699 6.889h4.265M11.699 4.153h4.265M11.699 12.172h4.265M11.699 14.728h4.265M11.699 17.154h4.265M8.389 12.172h1.125M8.389 14.728h1.125M8.389 17.283h1.125" stroke-linecap="round"/></g><path d="M1.732 21.014H21.41" stroke-width=".7" stroke-linecap="round"/></g><script xmlns=""/></svg>